<svg xmlns="http://www.w3.org/2000/svg" xmlns:xlink="http://www.w3.org/1999/xlink" width="56" height="56" viewBox="0 0 56 56">
  <defs>
    <filter id="Эллипс_18" x="0" y="0" width="56" height="56" filterUnits="userSpaceOnUse">
      <feOffset dy="3" input="SourceAlpha"/>
      <feGaussianBlur stdDeviation="3" result="blur"/>
      <feFlood flood-color="#0d0c0c" flood-opacity="0.239"/>
      <feComposite operator="in" in2="blur"/>
      <feComposite in="SourceGraphic"/>
    </filter>
  </defs>
  <g id="BUT_UP" data-name="BUT UP" transform="translate(-295 -437)">
    <g transform="matrix(1, 0, 0, 1, 295, 437)" filter="url(#Эллипс_18)">
      <circle id="Эллипс_18-2" data-name="Эллипс 18" cx="19" cy="19" r="19" transform="translate(47 44) rotate(180)" fill="#9d7255"/>
    </g>
    <path id="arrow_up" data-name="arrow up" d="M5.871,4.856a.66.66,0,0,1,.907,0,.585.585,0,0,1,0,.851l-4.6,4.361H17.355a.624.624,0,0,1,.644.6.631.631,0,0,1-.644.611H2.179l4.6,4.353a.6.6,0,0,1,0,.86.66.66,0,0,1-.907,0L.183,11.1a.585.585,0,0,1,0-.851Z" transform="translate(333.676 453.001) rotate(90)" fill="#fff"/>
  </g>
</svg>
