<svg xmlns="http://www.w3.org/2000/svg" width="24.162" height="23.309" viewBox="0 0 24.162 23.309">
  <defs>
    <style>
      .cls-1 {
        stroke: #0d0c0c;
        stroke-width: 2px;
      }
    </style>
  </defs>
  <path id="cancel" class="cls-1" d="M11.588,10.579l10.469-10a.33.33,0,0,0,0-.483.369.369,0,0,0-.505,0l-10.469,10L.614.1A.369.369,0,0,0,.109.108a.33.33,0,0,0,0,.474l10.469,10-10.469,10a.33.33,0,0,0-.009.483.369.369,0,0,0,.505.008l.009-.008,10.469-10,10.469,10a.369.369,0,0,0,.505-.008.33.33,0,0,0,0-.474Z" transform="translate(1 1.074)"/>
</svg>
