<svg xmlns="http://www.w3.org/2000/svg" xmlns:xlink="http://www.w3.org/1999/xlink" width="200" height="200" viewBox="0 0 200 200">
  <defs>
    <filter id="Эллипс_23" x="0" y="0" width="200" height="200" filterUnits="userSpaceOnUse">
      <feOffset dy="3" input="SourceAlpha"/>
      <feGaussianBlur stdDeviation="3" result="blur"/>
      <feFlood flood-color="#0d0c0c" flood-opacity="0.102"/>
      <feComposite operator="in" in2="blur"/>
      <feComposite in="SourceGraphic"/>
    </filter>
    <filter id="Эллипс_24" x="72" y="72" width="56" height="56" filterUnits="userSpaceOnUse">
      <feOffset dy="3" input="SourceAlpha"/>
      <feGaussianBlur stdDeviation="3" result="blur-2"/>
      <feFlood flood-color="#0d0c0c" flood-opacity="0.102"/>
      <feComposite operator="in" in2="blur-2"/>
      <feComposite in="SourceGraphic"/>
    </filter>
    <filter id="Эллипс_25" x="63" y="63" width="74" height="74" filterUnits="userSpaceOnUse">
      <feOffset dy="3" input="SourceAlpha"/>
      <feGaussianBlur stdDeviation="3" result="blur-3"/>
      <feFlood flood-color="#0d0c0c" flood-opacity="0.102"/>
      <feComposite operator="in" in2="blur-3"/>
      <feComposite in="SourceGraphic"/>
    </filter>
    <filter id="Эллипс_26" x="69" y="69" width="62" height="62" filterUnits="userSpaceOnUse">
      <feOffset dy="3" input="SourceAlpha"/>
      <feGaussianBlur stdDeviation="3" result="blur-4"/>
      <feFlood flood-color="#0d0c0c" flood-opacity="0.102"/>
      <feComposite operator="in" in2="blur-4"/>
      <feComposite in="SourceGraphic"/>
    </filter>
    <filter id="Эллипс_27" x="66" y="66" width="68" height="68" filterUnits="userSpaceOnUse">
      <feOffset dy="3" input="SourceAlpha"/>
      <feGaussianBlur stdDeviation="3" result="blur-5"/>
      <feFlood flood-color="#0d0c0c" flood-opacity="0.102"/>
      <feComposite operator="in" in2="blur-5"/>
      <feComposite in="SourceGraphic"/>
    </filter>
  </defs>
  <g id="связь" transform="translate(69 -390)">
    <g transform="matrix(1, 0, 0, 1, -69, 390)" filter="url(#Эллипс_23)">
      <g id="Эллипс_23-2" data-name="Эллипс 23" transform="translate(72 69)" fill="#9d7255" stroke="#9d7255" stroke-width="1" opacity="0.81">
        <circle cx="28" cy="28" r="28" stroke="none"/>
        <circle cx="28" cy="28" r="27.5" fill="none"/>
      </g>
    </g>
    <g transform="matrix(1, 0, 0, 1, -69, 390)" filter="url(#Эллипс_24)">
      <g id="Эллипс_24-2" data-name="Эллипс 24" transform="translate(81 78)" fill="#9d7255" stroke="#f3f1f1" stroke-width="1">
        <circle cx="19" cy="19" r="19" stroke="none"/>
        <circle cx="19" cy="19" r="18.5" fill="none"/>
      </g>
    </g>
    <g transform="matrix(1, 0, 0, 1, -69, 390)" filter="url(#Эллипс_25)">
      <g id="Эллипс_25-2" data-name="Эллипс 25" transform="translate(78 75)" fill="none" stroke="#9d7255" stroke-width="1" opacity="0.8">
        <circle cx="22" cy="22" r="22" stroke="none"/>
        <circle cx="22" cy="22" r="21.5" fill="none"/>
      </g>
    </g>
    <g transform="matrix(1, 0, 0, 1, -69, 390)" filter="url(#Эллипс_26)">
      <g id="Эллипс_26-2" data-name="Эллипс 26" transform="translate(78 75)" fill="none" stroke="#9d7255" stroke-width="1" opacity="0.8">
        <circle cx="22" cy="22" r="22" stroke="none"/>
        <circle cx="22" cy="22" r="21.5" fill="none"/>
      </g>
    </g>
    <g transform="matrix(1, 0, 0, 1, -69, 390)" filter="url(#Эллипс_27)">
      <g id="Эллипс_27-2" data-name="Эллипс 27" transform="translate(75 72)" fill="none" stroke="#9d7255" stroke-width="1" opacity="0.4">
        <circle cx="25" cy="25" r="25" stroke="none"/>
        <circle cx="25" cy="25" r="24.5" fill="none"/>
      </g>
    </g>
    <g id="chat-comment-oval-speech-bubble-with-text-lines" transform="translate(16.647 472.647)">
      <g id="_x32__26_">
        <g id="Сгруппировать_24" data-name="Сгруппировать 24">
          <path id="Контур_110" data-name="Контур 110" d="M10.5,8.5h-5a.5.5,0,0,0,0,1h5a.5.5,0,0,0,0-1Zm1-3h-7a.5.5,0,1,0,0,1h7a.5.5,0,1,0,0-1ZM8,0C3.582,0,0,3.134,0,7a6.7,6.7,0,0,0,3,5.46V16l3.5-2.127A9.174,9.174,0,0,0,8,14c4.419,0,8-3.134,8-7S12.419,0,8,0ZM8,13a8.091,8.091,0,0,1-1.69-.184L3.956,14.231l.032-2.319A5.8,5.8,0,0,1,1,7C1,3.687,4.134,1,8,1s7,2.687,7,6S11.866,13,8,13Z" transform="translate(6.353 6.353)" fill="#f3f1f1"/>
        </g>
      </g>
    </g>
  </g>
</svg>
