<svg id="diamond" xmlns="http://www.w3.org/2000/svg" width="36" height="36" viewBox="0 0 36 36">
  <path id="Контур_99" data-name="Контур 99" d="M241,0h2.248V6.818H241Z" transform="translate(-224.124)" fill="#8b8ea1"/>
  <path id="Контур_100" data-name="Контур 100" d="M0,0H2.247V5.266H0Z" transform="translate(5.67 5.013) rotate(-45)" fill="#8b8ea1"/>
  <path id="Контур_101" data-name="Контур 101" d="M0,0H5.266V2.247H0Z" transform="translate(25.013 7.149) rotate(-45)" fill="#8b8ea1"/>
  <path id="Контур_102" data-name="Контур 102" d="M286,151l4.617,6.156L296.773,151Z" transform="translate(-266.405 -140.516)" fill="#8b8ea1"/>
  <path id="Контур_103" data-name="Контур 103" d="M204.986,167l-4.5-5.993-4.5,5.993Z" transform="translate(-182.491 -149.822)" fill="#8b8ea1"/>
  <path id="Контур_104" data-name="Контур 104" d="M92.984,151H82.211l6.156,6.156Z" transform="translate(-76.578 -140.516)" fill="#8b8ea1"/>
  <path id="Контур_105" data-name="Контур 105" d="M186.956,271l5.173,17.355L197.3,271Z" transform="translate(-174.129 -253.056)" fill="#8b8ea1"/>
  <path id="Контур_106" data-name="Контур 106" d="M4.268,168.181,0,173.637H9.724Z" transform="translate(0 -156.484)" fill="#8b8ea1"/>
  <path id="Контур_107" data-name="Контур 107" d="M382.211,173.653h9.724l-4.27-5.454Z" transform="translate(-355.935 -156.501)" fill="#8b8ea1"/>
  <path id="Контур_108" data-name="Контур 108" d="M284.519,289.052,301.4,271H289.929Z" transform="translate(-265.562 -253.056)" fill="#8b8ea1"/>
  <path id="Контур_109" data-name="Контур 109" d="M19.033,289.056,13.622,271H2.15Z" transform="translate(-1.989 -253.056)" fill="#8b8ea1"/>
</svg>
