<svg xmlns="http://www.w3.org/2000/svg" width="26.002" height="26.002" viewBox="0 0 26.002 26.002">
  <path id="Icon_feather-phone" data-name="Icon feather-phone" d="M27.167,20.968v3.613a2.412,2.412,0,0,1-2.631,2.409,23.911,23.911,0,0,1-10.414-3.7,23.508,23.508,0,0,1-7.24-7.226,24.723,24.723,0,0,1-1.959-3.691A23.283,23.283,0,0,1,3.178,5.625,2.411,2.411,0,0,1,5.579,3H9.2a2.412,2.412,0,0,1,2.413,2.071,15.438,15.438,0,0,0,.845,3.384A2.4,2.4,0,0,1,11.914,11l-1.533,1.529a19.288,19.288,0,0,0,7.24,7.226l1.533-1.529a2.417,2.417,0,0,1,2.546-.542,15.519,15.519,0,0,0,3.391.843,2.41,2.41,0,0,1,2.076,2.445Z" transform="translate(-2.167 -2)" fill="none" stroke="#0d0c0c" stroke-linecap="round" stroke-linejoin="round" stroke-width="2"/>
</svg>
