<svg xmlns="http://www.w3.org/2000/svg" width="21.09" height="23.888" viewBox="0 0 21.09 23.888">
  <defs>
    <style>
      .cls-1 {
        fill: none;
        stroke: #000;
        stroke-width: 1.5px;
      }
    </style>
  </defs>
  <path id="user" class="cls-1" d="M9.795,11.194A5.6,5.6,0,1,0,4.2,5.6,5.6,5.6,0,0,0,9.795,11.194Zm3.918,1.4h-.73a7.612,7.612,0,0,1-6.375,0h-.73A5.878,5.878,0,0,0,0,18.47v1.819a2.1,2.1,0,0,0,2.1,2.1H17.491a2.1,2.1,0,0,0,2.1-2.1V18.47A5.878,5.878,0,0,0,13.713,12.593Z" transform="translate(0.75 0.75)"/>
</svg>
