<?xml version="1.0" standalone="no"?>
<!DOCTYPE svg PUBLIC "-//W3C//DTD SVG 1.1//EN" "http://www.w3.org/Graphics/SVG/1.1/DTD/svg11.dtd" >
<svg xmlns="http://www.w3.org/2000/svg">
<metadata>Generated by IcoMoon</metadata>
<defs>
<font id="icomoon" horiz-adv-x="1024">
<font-face units-per-em="1024" ascent="960" descent="-64" />
<missing-glyph horiz-adv-x="1024" />
<glyph unicode="&#x20;" horiz-adv-x="512" d="" />
<glyph unicode="&#xe900;" d="M1024 448c0-282.77-229.23-512-512-512s-512 229.23-512 512c0 282.77 229.23 512 512 512s512-229.23 512-512z" />
<glyph unicode="&#xe901;" d="M512-64c-282.77 0-512 229.23-512 512s229.23 512 512 512c282.77 0 512-229.23 512-512v0c0-282.77-229.23-512-512-512v0zM512 941.714c-272.671 0-493.714-221.043-493.714-493.714s221.043-493.714 493.714-493.714c272.671 0 493.714 221.043 493.714 493.714v0c0 272.671-221.043 493.714-493.714 493.714v0z" />
<glyph unicode="&#xe902;" d="M859.429 448c0-191.88-155.549-347.429-347.429-347.429s-347.429 155.549-347.429 347.429c0 191.88 155.549 347.429 347.429 347.429s347.429-155.549 347.429-347.429z" />
<glyph unicode="&#xe903;" d="M512 100.571c-191.88 0-347.429 155.549-347.429 347.429s155.549 347.429 347.429 347.429c191.88 0 347.429-155.549 347.429-347.429v0c0-191.88-155.549-347.429-347.429-347.429v0zM512 777.143c-181.781 0-329.143-147.362-329.143-329.143s147.362-329.143 329.143-329.143c181.781 0 329.143 147.362 329.143 329.143v0c0 181.781-147.362 329.143-329.143 329.143v0z" />
<glyph unicode="&#xe904;" d="M512 45.714c-222.176 0-402.286 180.109-402.286 402.286s180.109 402.286 402.286 402.286c222.176 0 402.286-180.109 402.286-402.286v0c0-222.176-180.109-402.286-402.286-402.286v0zM512 832c-212.077 0-384-171.923-384-384s171.923-384 384-384c212.077 0 384 171.923 384 384v0c0 212.077-171.923 384-384 384v0z" />
<glyph unicode="&#xe905;" d="M512-9.143c-252.473 0-457.143 204.67-457.143 457.143s204.67 457.143 457.143 457.143c252.473 0 457.143-204.67 457.143-457.143v0c0-252.473-204.67-457.143-457.143-457.143v0zM512 886.857c-242.374 0-438.857-196.483-438.857-438.857s196.483-438.857 438.857-438.857c242.374 0 438.857 196.483 438.857 438.857v0c0 242.374-196.483 438.857-438.857 438.857v0z" />
<glyph unicode="&#xe906;" d="M557.714 438.857h-91.429c-5.049 0-9.143-4.093-9.143-9.143s4.093-9.143 9.143-9.143v0h91.429c5.049 0 9.143 4.093 9.143 9.143s-4.093 9.143-9.143 9.143v0zM576 493.714h-128c-5.049 0-9.143-4.093-9.143-9.143s4.093-9.143 9.143-9.143v0h128c5.049 0 9.143 4.093 9.143 9.143s-4.093 9.143-9.143 9.143v0zM512 594.286c-80.823 0-146.286-57.234-146.286-128 0.81-41.585 22.217-78.002 54.414-99.561l0.443-0.279v-64.731l64 38.949c8.114-1.513 17.449-2.378 26.987-2.378 0.155 0 0.311 0 0.466 0.001h-0.024c80.823 0 146.286 57.234 146.286 128s-65.463 128-146.286 128zM512 356.571c-0.014 0-0.030 0-0.046 0-10.931 0-21.582 1.199-31.829 3.473l0.972-0.181-42.24-25.783v42.423c-32.104 17.888-53.724 51.187-54.854 89.629l-0.004 0.154c0 60.526 57.234 109.714 128 109.714s128-49.189 128-109.714-57.234-109.714-128-109.714z" />
<glyph unicode="&#xe907;" glyph-name="youtube" d="M512-64c-282.77 0-512 229.23-512 512s229.23 512 512 512c282.77 0 512-229.23 512-512v0c0-282.77-229.23-512-512-512v0zM512 928c-265.097 0-480-214.903-480-480s214.903-480 480-480c265.097 0 480 214.903 480 480v0c0 265.097-214.903 480-480 480v0zM402.56 704l-34.56-68.48-34.56 68.48h-45.44l64-108.8v-83.2h32v83.52l64 108.48zM496 640c8.837 0 16-7.163 16-16v0-64c0-8.837-7.163-16-16-16s-16 7.163-16 16v0 64c0 8.837 7.163 16 16 16v0zM496 672c-26.51 0-48-21.49-48-48v0-64c0-26.51 21.49-48 48-48s48 21.49 48 48v0 64c0 26.51-21.49 48-48 48v0zM640 672v-126.080c-14.080-11.52-32-18.56-32 23.040v103.040h-32v-109.76c0-26.24 6.080-73.92 64-35.2v-15.040h32v160zM688 352c-8.837 0-16-7.163-16-16v0-16h32v16c0 8.837-7.163 16-16 16v0zM544 336v-83.84c10.88-10.88 32-12.16 32 3.84v74.88c0 16-16 21.12-32 5.12zM765.44 413.12c-1.561 35.258-30.196 63.334-65.536 63.999l-0.064 0.001c-34.88 2.88-114.56 2.88-184.64 2.88s-155.84 0-192-2.56c-34.788-1.355-62.645-29.212-63.996-63.874l-0.004-0.126c-3.2-37.76-3.2-51.52-3.2-70.080s0-47.040 3.2-84.48c1.355-34.788 29.212-62.645 63.874-63.996l0.126-0.004c34.88 0 120.32-2.56 192-2.56s149.76 0 184.64 2.56c35.404 0.666 64.039 28.742 65.595 63.858l0.005 0.142c0 32 2.56 59.52 2.56 84.48s0 38.72-2.56 69.76zM352 224h-32v160h-32v32h96v-32h-32zM480 224h-32v15.040c-60.8-34.24-64 0-64 25.28v0 87.68h32v-88c0-19.2 17.92-17.6 32-6.080v94.080h32zM608 256c0-32-34.24-43.2-64-16.96v-15.040h-32v192h32v-51.84c32 32 64 19.84 64-12.16zM736 320v-16h-64v-32c0-8.837 7.163-16 16-16s16 7.163 16 16v0 16h32v-16c0-26.51-21.49-48-48-48s-48 21.49-48 48v0 64c0 26.51 21.49 48 48 48s48-21.49 48-48v0z" />
<glyph unicode="&#xe908;" glyph-name="close-drop-down" d="M984 488h-944c-22.092 0-40-17.908-40-40s17.908-40 40-40h944c22.092 0 40 17.908 40 40s-17.908 40-40 40z" />
<glyph unicode="&#xe909;" glyph-name="diamond" d="M480 960h64v-194.88h-64zM160 816.64l46.4 45.44 106.56-106.56-45.44-45.44zM710.72 755.52l106.56 106.56 46.72-45.44-107.84-106.56zM556.16 662.080l131.84-176 176 176zM640 470.72l-128 171.52-128-171.52zM467.84 662.080h-307.84l176-176zM364.16 452.16l147.84-496 147.84 496zM121.92 627.52l-121.92-155.84h278.080zM745.92 471.68h278.080l-122.24 155.84zM536.64-64l482.56 516.16h-328zM487.36-64l-154.88 516.16h-328z" />
<glyph unicode="&#xe90a;" glyph-name="menu" horiz-adv-x="1257" d="M1210.182 960h-1163.636c-25.706 0-46.545-20.839-46.545-46.545s20.839-46.545 46.545-46.545v0h1163.636c25.706 0 46.545 20.839 46.545 46.545v0 0c0 25.706-20.839 46.545-46.545 46.545v0zM1210.182 494.545h-1163.636c-25.706 0-46.545-20.839-46.545-46.545s20.839-46.545 46.545-46.545v0h1163.636c25.706 0 46.545 20.839 46.545 46.545v0 0c0 25.706-20.839 46.545-46.545 46.545v0zM1210.182 29.091h-1163.636c-25.706 0-46.545-20.839-46.545-46.545s20.839-46.545 46.545-46.545v0h1163.636c25.706 0 46.545 20.839 46.545 46.545v0 0c0 25.706-20.839 46.545-46.545 46.545v0z" />
<glyph unicode="&#xe90e;" glyph-name="instagram" d="M512-64c-282.77 0-512 229.23-512 512s229.23 512 512 512c282.77 0 512-229.23 512-512v0c0-282.77-229.23-512-512-512v0zM512 928c-265.097 0-480-214.903-480-480s214.903-480 480-480c265.097 0 480 214.903 480 480v0c0 265.097-214.903 480-480 480v0zM512 579.2c-72.46 0-131.2-58.74-131.2-131.2s58.74-131.2 131.2-131.2c72.46 0 131.2 58.74 131.2 131.2v0c0 0.095 0 0.208 0 0.32 0 72.283-58.597 130.88-130.88 130.88-0.113 0-0.225 0-0.338 0h0.017zM512 362.88c-47.187 0-85.439 38.253-85.439 85.44s38.253 85.44 85.44 85.44c47.187 0 85.44-38.253 85.44-85.44 0-0.113 0-0.225-0.001-0.337v0.017c0 0 0 0 0-0.001 0-47.010-38.11-85.12-85.12-85.12-0.113 0-0.225 0-0.337 0.001h0.017zM679.040 584.96c0-17.673-14.327-32-32-32s-32 14.327-32 32c0 17.673 14.327 32 32 32v0c17.673 0 32-14.327 32-32v0 0zM766.080 552.96c0.015 0.81 0.024 1.765 0.024 2.722 0 40.551-15.714 77.432-41.385 104.885l0.081-0.087c-27.448 25.966-64.592 41.93-105.464 41.93-0.61 0-1.22-0.004-1.828-0.011l0.092 0.001c-41.6 1.6-169.6 1.6-211.2 0-0.839 0.017-1.829 0.026-2.821 0.026-40.474 0-77.246-15.853-104.445-41.688l0.066 0.062c-25.585-26.956-41.321-63.478-41.321-103.675 0-1.24 0.015-2.476 0.045-3.708l-0.003 0.183c-1.92-41.6-1.92-169.6 0-211.2-0.028-1.087-0.044-2.366-0.044-3.65 0-40.158 15.739-76.64 41.384-103.614l-0.060 0.064c27.23-25.586 63.989-41.305 104.42-41.305 0.977 0 1.953 0.009 2.926 0.027l-0.146-0.002c42.24-2.56 168.96-2.56 211.2 0 0.975-0.023 2.125-0.035 3.277-0.035 40.275 0 76.876 15.73 103.994 41.382l-0.071-0.066c25.585 27.139 41.31 63.819 41.31 104.172 0 1.065-0.011 2.127-0.033 3.187l0.003-0.158c1.92 41.6 1.92 169.6 0 211.2zM711.36 296.96c-8.805-22.422-26.218-39.835-48.065-48.44l-0.575-0.2c-33.92-13.44-113.6-10.56-150.72-10.56-11.034-0.753-23.915-1.183-36.896-1.183-40.4 0-79.828 4.159-117.88 12.073l3.736-0.65c-22.422 8.805-39.835 26.218-48.44 48.065l-0.2 0.575c-13.44 32-10.24 113.6-10.24 151.040-0.755 11.020-1.186 23.885-1.186 36.85 0 40.304 4.16 79.637 12.075 117.592l-0.649-3.722c8.87 22.466 26.249 39.949 48.062 48.754l0.578 0.206c34.676 7.419 74.514 11.667 115.345 11.667 12.559 0 25.023-0.402 37.382-1.194l-1.686 0.086c11.020 0.755 23.885 1.186 36.85 1.186 40.304 0 79.637-4.16 117.592-12.075l-3.722 0.649c22.315-8.974 39.666-26.325 48.433-48.060l0.207-0.58c13.44-33.92 10.24-113.92 10.24-151.040s3.2-117.12-10.24-151.040z" />
<glyph unicode="&#xe90f;" glyph-name="place" d="M512-79.68l-23.68 26.24c-14.080 15.68-344.32 384-344.32 645.44 0 0.095 0 0.207 0 0.32 0 203.064 164.616 367.68 367.68 367.68v0c0.095 0 0.208 0 0.32 0 203.241 0 368-164.759 368-368v0c0-261.44-330.24-629.76-344.32-645.44zM511.68 896c-167.606 0-303.498-135.78-303.68-303.343v-0.017c0-199.36 228.8-486.4 304-576 75.52 89.28 304 376.32 304 576-0.363 167.395-135.965 302.997-303.325 303.36h-0.035zM511.68 440v0c-83.947 0-152 68.053-152 152s68.053 152 152 152c83.947 0 152-68.053 152-152v0c0 0 0 0 0 0 0-83.835-67.87-151.818-151.663-152h-0.017zM511.68 680c-48.601 0-88-39.399-88-88s39.399-88 88-88c48.601 0 88 39.399 88 88v0c0 0 0 0 0 0.001 0 48.489-39.217 87.817-87.663 87.999h-0.017z" />
<glyph unicode="&#xe910;" glyph-name="phone" d="M889.698-64h-12.603c-160.816 18.203-306.039 72.412-431.509 154.348l3.792-2.323c-120.427 77.166-219.795 176.535-294.662 293.135l-2.298 3.825c-80.085 121.683-134.479 267.1-152.014 423.66l-0.405 4.451c-0.348 3.617-0.547 7.82-0.547 12.069 0 33.217 12.13 63.601 32.203 86.964l-0.149-0.177c22.078 26.844 54.162 44.76 90.47 48.012l0.509 0.037h157.538c67.339-0.299 122.988-49.966 132.636-114.659l0.090-0.738c6.194-46.62 17.092-88.757 32.413-128.704l-1.299 3.855c5.463-14.087 8.628-30.391 8.628-47.434 0-36.947-14.876-70.42-38.966-94.756l-39.374-39.374c58.976-93.287 135.806-169.991 226.254-227.078l2.964-1.747 39.385 39.385c24.324 24.078 57.797 38.955 94.745 38.955 17.043 0 33.347-3.165 48.355-8.94l-0.921 0.312c35.975-13.761 78.090-24.643 121.733-30.756l3.116-0.358c65.026-9.91 114.27-65.434 114.27-132.46 0-1.34-0.020-2.676-0.059-4.006l0.005 0.195v-141.785c-0.224-74.003-60.267-133.908-134.301-133.908 0 0 0 0 0 0v0zM277.662 881.231h-148.086c-28.705-2.601-51.025-26.549-51.025-55.711 0-1.74 0.079-3.461 0.235-5.16l-0.016 0.218c16.518-148.081 66.404-281.842 141.94-397.307l-2.124 3.461c71.17-110.49 162.447-201.767 269.421-270.811l3.514-2.124c112.059-73.225 245.781-123.080 389.668-139.43l4.178-0.386h4.726c30.549 0.441 55.144 25.308 55.144 55.921 0 0.279-0.002 0.557-0.006 0.835v-0.042 140.997c0.005 0.269 0.007 0.585 0.007 0.903 0 27.816-20.597 50.821-47.371 54.596l-0.292 0.034c-53.036 7.243-100.87 19.647-146.286 36.952l4.501-1.506c-5.83 2.234-12.574 3.528-19.621 3.528-15.37 0-29.302-6.157-39.465-16.139l0.008 0.008-60.258-59.865c-7.12-7.083-16.936-11.461-27.774-11.461-7.167 0-13.888 1.915-19.677 5.26l0.19-0.101c-126.161 73.234-227.931 175.887-298.041 298.922l-2.070 3.946c-3.244 5.6-5.159 12.32-5.159 19.487 0 10.838 4.378 20.654 11.462 27.776l59.075 59.469c9.953 9.974 16.107 23.741 16.107 38.946 0 6.949-1.285 13.597-3.631 19.721l0.127-0.378c-16.008 41.116-28.425 89.105-35.089 138.914l-0.357 3.264c-4.264 26.507-26.668 46.609-53.89 47.26l-0.067 0.001z" />
<glyph unicode="&#xe911;" glyph-name="facebook" d="M512-64c-282.77 0-512 229.23-512 512s229.23 512 512 512c282.77 0 512-229.23 512-512v0c0-282.77-229.23-512-512-512v0zM512 928c-265.097 0-480-214.903-480-480s214.903-480 480-480c265.097 0 480 214.903 480 480v0c0 265.097-214.903 480-480 480v0zM623.040 416l13.44 92.8h-82.88v60.16c-0.212 1.636-0.333 3.529-0.333 5.45 0 22.829 17.076 41.671 39.152 44.447l0.22 0.023h47.36v78.72c-19.872 3.682-42.958 5.994-66.509 6.395l-0.371 0.005c-68.48 0-113.28-44.48-113.28-124.8v-70.4h-75.84v-92.8h75.84v-224h93.76v224z" />
<glyph unicode="&#xe912;" glyph-name="-open-drop-down" d="M509.591 49.242c-0.207-0.004-0.452-0.006-0.697-0.006-18.985 0-34.953 12.916-39.597 30.44l-0.064 0.286v340.329h-428.273c-0.245-0.005-0.533-0.008-0.822-0.008-20.807 0-37.936 15.745-40.122 35.971l-0.016 0.179v7.228c2.915 19.675 19.687 34.6 39.945 34.6 1.631 0 3.24-0.097 4.82-0.285l-0.191 0.019h421.647v333.101c1.193 21.661 19.049 38.774 40.902 38.774 1.506 0 2.993-0.081 4.456-0.24l-0.181 0.016c0.069 0 0.15 0.001 0.231 0.001 19.806 0 36.123-14.936 38.303-34.158l0.016-0.177v-337.318h426.466c0.606 0.034 1.315 0.053 2.029 0.053 20.157 0 36.756-15.232 38.915-34.813l0.016-0.176v-7.831c-2.368-19.903-19.145-35.19-39.492-35.19-1.578 0-3.135 0.092-4.665 0.271l0.186-0.018h-421.647v-340.329c-3.806-14.51-15.006-25.71-29.23-29.451l-0.285-0.064c-2.761-0.883-5.938-1.392-9.233-1.392-1.204 0-2.392 0.068-3.56 0.2l0.143-0.013zM41.562 437.76v0zM975.812 437.76v0zM40.358 480.527v0zM974.005 480.527v0z" />
<glyph unicode="&#xe916;" d="M1024 448c0-282.77-229.23-512-512-512s-512 229.23-512 512c0 282.77 229.23 512 512 512s512-229.23 512-512z" />
<glyph unicode="&#xe917;" d="M668.834 532.345c2.976-3.209 4.802-7.522 4.802-12.261s-1.826-9.052-4.812-12.273l0.011 0.012c-2.871-2.842-6.822-4.598-11.183-4.598s-8.312 1.756-11.184 4.599l0.001-0.001-117.491 123.958v-409.061c0.086-0.631 0.135-1.36 0.135-2.1 0-9.078-7.359-16.438-16.438-16.438s-16.438 7.359-16.438 16.438c0 0.74 0.049 1.47 0.144 2.184l-0.009-0.084v409.061l-119.107-123.958c-2.884-2.923-6.89-4.733-11.318-4.733s-8.433 1.81-11.316 4.731l-0.002 0.002c-2.976 3.209-4.802 7.522-4.802 12.261s1.826 9.052 4.812 12.273l-0.011-0.012 145.516 153.331c2.828 2.826 6.734 4.574 11.048 4.574s8.22-1.748 11.048-4.575v0z" />
<glyph unicode="&#xe918;" d="M1024 448c0-282.77-229.23-512-512-512s-512 229.23-512 512c0 282.77 229.23 512 512 512s512-229.23 512-512z" />
<glyph unicode="&#xe919;" d="M596.076 677.053c-0.008 0-0.017 0-0.026 0-2.739 0-5.214-1.135-6.978-2.961l-0.003-0.003-222.316-232.017c-1.889-1.9-3.057-4.519-3.057-7.411s1.168-5.511 3.058-7.411v0l222.316-232.017c1.757-1.763 4.187-2.853 6.872-2.853s5.115 1.091 6.871 2.853v0c1.889 1.9 3.057 4.519 3.057 7.411s-1.168 5.511-3.058 7.411v0l-215.579 224.472 215.579 224.472c1.77 1.952 2.854 4.555 2.854 7.411s-1.084 5.459-2.862 7.42l0.008-0.009c-1.675 1.873-4.051 3.089-6.712 3.233l-0.024 0.001z" />
<glyph unicode="&#xe91a;" d="M596.345 178.526h-1.347c-6.341 0.253-11.968 3.109-15.879 7.522l-0.020 0.023-222.046 231.747c-4.131 4.341-6.673 10.227-6.673 16.707s2.542 12.367 6.682 16.717l-0.009-0.010 222.316 232.017c4.201 4.448 10.125 7.231 16.699 7.276h0.008c6.633-0.050 12.58-2.945 16.689-7.524l0.019-0.021c4.131-4.341 6.673-10.227 6.673-16.707s-2.542-12.367-6.682-16.717l0.009 0.010-206.147-215.579 206.147-215.579c4.225-4.399 6.827-10.384 6.827-16.977s-2.602-12.578-6.835-16.985l0.008 0.008c-4.124-3.689-9.599-5.943-15.6-5.943-0.295 0-0.588 0.005-0.88 0.016l0.042-0.001zM598.501 205.474v0z" />
<glyph unicode="&#xe91b;" d="M1024 448c0-282.77-229.23-512-512-512s-512 229.23-512 512c0 282.77 229.23 512 512 512s512-229.23 512-512z" />
<glyph unicode="&#xe91c;" d="M512 290.366c-1.56-0.119-3.38-0.187-5.215-0.187-37.983 0-69.155 29.165-72.342 66.323l-0.019 0.27v350.642c6.047 37.864 38.473 66.453 77.576 66.453s71.529-28.588 77.517-66.004l0.059-0.448v-350.642c-3.206-37.427-34.378-66.592-72.361-66.592-1.835 0-3.654 0.068-5.455 0.202l0.24-0.014z" />
<glyph unicode="&#xe91d;" d="M574.681 152.592c0-33.932-30.147-61.44-67.336-61.44s-67.336 27.508-67.336 61.44c0 33.932 30.147 61.44 67.336 61.44s67.336-27.508 67.336-61.44z" />
<glyph unicode="&#xe91e;" d="M1024 448c0-282.77-229.23-512-512-512s-512 229.23-512 512c0 282.77 229.23 512 512 512s512-229.23 512-512z" />
<glyph unicode="&#xe91f;" d="M405.876 323.879l-141.498 141.498-47.166-47.166 188.664-188.664 403.394 403.394-46.545 47.787z" />
<glyph unicode="&#xe920;" glyph-name="user" d="M498.502 457.309c0.535-0.004 1.167-0.007 1.8-0.007 68.499 0 130.378 28.347 174.545 73.949l0.062 0.065c46.221 44.305 74.945 106.55 74.945 175.504 0 0.645-0.003 1.289-0.008 1.933l0.001-0.099c0.006 0.624 0.009 1.361 0.009 2.099 0 69.017-28.722 131.326-74.864 175.626l-0.083 0.079c-44.118 45.39-105.752 73.554-173.965 73.554-0.859 0-1.716-0.004-2.573-0.013l0.13 0.001c-1.079 0.017-2.352 0.027-3.628 0.027-68.281 0-129.984-28.167-174.123-73.514l-0.053-0.054c-45.402-44.192-73.569-105.895-73.569-174.176 0-1.276 0.010-2.549 0.029-3.82l-0.002 0.192c-0.019-1.116-0.029-2.432-0.029-3.751 0-68.097 28.177-129.613 73.507-173.526l0.064-0.061c44.303-45.677 106.249-74.026 174.816-74.026 1.050 0 2.099 0.007 3.146 0.020l-0.159-0.002zM363.985 843.171c32.947 34.469 79.287 55.896 130.633 55.896 1.365 0 2.727-0.015 4.086-0.045l-0.202 0.004c1.040 0.021 2.265 0.034 3.494 0.034 51.466 0 97.929-21.418 130.964-55.826l0.059-0.062c34.2-33.201 55.424-79.607 55.424-130.97 0-1.247-0.013-2.491-0.037-3.732l0.003 0.186c0.022-1.055 0.034-2.299 0.034-3.546 0-51.363-21.223-97.769-55.379-130.927l-0.045-0.043c-33.201-34.2-79.607-55.424-130.97-55.424-1.247 0-2.491 0.013-3.732 0.037l0.186-0.003c-1.055-0.022-2.299-0.034-3.546-0.034-51.363 0-97.769 21.223-130.927 55.379l-0.043 0.045c-34.47 33.093-55.888 79.557-55.888 131.023 0 1.228 0.012 2.454 0.036 3.677l-0.003-0.183c-0.021 1.040-0.034 2.265-0.034 3.494 0 51.466 21.418 97.929 55.826 130.964l0.062 0.059zM937.891 158.022c-1.859 24.912-4.832 47.395-8.977 69.465l0.599-3.836c-4.606 26.058-10.257 48.451-17.314 70.209l1.024-3.649c-7.536 23.546-16.687 43.876-27.796 62.924l0.8-1.484c-11.499 20.559-25.273 38.189-41.329 53.437l-0.096 0.091c-16.278 15.901-35.809 28.55-57.493 36.848l-1.155 0.388c-21.394 8.56-46.193 13.525-72.151 13.525-1.144 0-2.285-0.010-3.424-0.029l0.172 0.002c-15.756-1.637-29.81-7.871-41.078-17.318l0.118 0.096-42.356-27.462c-15.876-9.42-34.22-17.637-53.519-23.697l-1.87-0.506c-20.003-6.683-43.038-10.592-66.97-10.705h-0.055c-24.158 0.157-47.35 4.062-69.098 11.159l1.607-0.454c-20.984 6.548-39.172 14.764-56.11 24.859l1.187-0.655-42.356 27.462c-11.15 9.351-25.204 15.585-40.633 17.194l-0.327 0.028c-0.968 0.017-2.109 0.027-3.253 0.027-25.958 0-50.756-4.965-73.498-13.996l1.347 0.472c-22.96-8.813-42.622-21.445-59.176-37.297l0.063 0.060c-15.99-15.337-29.615-32.967-40.386-52.399l-0.574-1.128c-10.188-17.479-19.473-37.78-26.741-59.017l-0.721-2.423c-5.899-18.126-11.396-40.54-15.381-63.472l-0.444-3.088c-4.189-23.273-6.982-46.545-8.844-65.629s0-40.96 0-61.905c-0.114-2.336-0.178-5.073-0.178-7.826 0-48.188 19.845-91.742 51.809-122.933l0.035-0.034c32.682-29.025 75.962-46.754 123.384-46.754 3.097 0 6.177 0.076 9.237 0.225l-0.431-0.017h500.364c2.761-0.146 5.994-0.23 9.247-0.23 47.433 0 90.722 17.738 123.598 46.941l-0.191-0.166c31.998 31.225 51.844 74.778 51.844 122.967 0 2.752-0.065 5.49-0.193 8.21l0.014-0.385c0 20.945-0.931 41.891-2.327 61.905zM844.8 9.542c-22.007-19.868-51.309-32.024-83.45-32.024-3.393 0-6.754 0.135-10.079 0.401l0.438-0.028h-495.709c-3.034-0.265-6.565-0.417-10.13-0.417-31.992 0-61.14 12.18-83.059 32.156l0.098-0.088c-20.265 20.503-32.783 48.701-32.783 79.822 0 2.375 0.073 4.734 0.217 7.073l-0.016-0.321c0 19.549 0 39.098 0 57.716s4.189 38.167 7.913 59.113c3.906 22.73 8.915 42.464 15.275 61.582l-0.846-2.935c6.034 19.244 13.456 35.887 22.516 51.46l-0.64-1.191c9.898 15.18 21.447 28.209 34.644 39.346l0.265 0.218c11.044 10.051 24.008 18.231 38.243 23.903l0.855 0.3c13.76 5.384 29.679 8.751 46.31 9.303l0.236 0.006 12.102-7.447 42.822-27.462c19.921-12.273 42.886-22.858 67.131-30.575l2.222-0.61c25.672-8.567 55.243-13.653 85.957-13.962l0.152-0.001c30.867 0.311 60.438 5.396 88.158 14.55l-2.049-0.586c26.263 8.196 49.083 18.787 70.154 31.922l-1.267-0.736 43.287 27.462c3.512 2.668 7.477 5.145 11.663 7.247l0.439 0.2c16.851-0.462 32.782-3.837 47.492-9.638l-0.947 0.329c15.29-5.844 28.426-14.043 39.661-24.291l-0.097 0.087c11.63-11.443 21.672-24.45 29.796-38.692l0.458-0.872c7.88-14.153 15.275-30.761 21.213-48.046l0.664-2.223c5.187-15.728 10.186-35.449 13.956-55.604l0.473-3.044c3.318-16.708 5.965-36.971 7.364-57.577l0.084-1.536c0-18.618 0-38.167 0-57.716 0.288-3.026 0.452-6.542 0.452-10.096 0-29.529-11.316-56.415-29.848-76.559l0.073 0.080z" />
<glyph unicode="&#xe921;" d="M512-64c-282.77 0-512 229.23-512 512s229.23 512 512 512c282.77 0 512-229.23 512-512v0c0-282.77-229.23-512-512-512v0zM512 913.455c-257.063 0-465.455-208.391-465.455-465.455s208.391-465.455 465.455-465.455c257.063 0 465.455 208.391 465.455 465.455v0c0 257.063-208.391 465.455-465.455 465.455v0z" />
<glyph unicode="&#xe922;" d="M584.611 669.091c-0.007 0-0.015 0-0.022 0-2.366 0-4.503-0.981-6.026-2.558l-0.002-0.002-192-200.378c-1.632-1.641-2.64-3.903-2.64-6.4s1.009-4.759 2.641-6.4v0l192-200.378c1.517-1.522 3.616-2.464 5.935-2.464s4.417 0.942 5.934 2.464v0c1.578 1.665 2.549 3.919 2.549 6.4s-0.971 4.735-2.553 6.404l0.004-0.004-186.182 193.862 186.182 193.862c1.529 1.686 2.465 3.934 2.465 6.4s-0.936 4.714-2.472 6.408l0.007-0.008c-1.446 1.618-3.499 2.668-5.797 2.792l-0.021 0.001z" />
<glyph unicode="&#xe923;" d="M584.378 238.545c-0.051 0-0.111-0.001-0.171-0.001-5.639 0-10.714 2.416-14.245 6.27l-0.013 0.014-191.767 200.145c-3.568 3.749-5.763 8.833-5.763 14.429s2.195 10.68 5.771 14.438l-0.008-0.009 192 200.378c3.613 3.864 8.739 6.274 14.427 6.284h0.002c5.729-0.043 10.865-2.544 14.413-6.498l0.016-0.018c3.568-3.749 5.763-8.833 5.763-14.429s-2.195-10.68-5.771-14.438l0.008 0.009-178.036-186.182 178.036-186.182c3.649-3.799 5.896-8.968 5.896-14.662s-2.247-10.863-5.903-14.669l0.007 0.007c-3.732-3.054-8.551-4.904-13.803-4.904-0.302 0-0.603 0.006-0.902 0.018l0.043-0.001zM586.705 261.818v0z" />
<glyph unicode="&#xe924;" glyph-name="search" d="M1013.001 0.853l-182.044 181.665s-2.276 0-3.413 2.276c70.269 81.89 113.046 189.157 113.046 306.415 0 260.567-211.231 471.799-471.799 471.799s-471.799-211.231-471.799-471.799c0-260.567 211.231-471.799 471.799-471.799 117.258 0 224.526 42.777 307.048 113.576l-0.633-0.53s0-2.655 2.276-3.413l181.665-182.044c6.874-6.929 16.4-11.218 26.927-11.218s20.053 4.289 26.925 11.216l0.002 0.002c6.929 6.874 11.218 16.4 11.218 26.927s-4.289 20.053-11.216 26.925l-0.002 0.002zM470.281 95.289c-217.837 0-394.43 176.592-394.43 394.43s176.592 394.43 394.43 394.43c217.837 0 394.43-176.592 394.43-394.43v0c-0.431-217.664-176.766-393.999-394.389-394.43h-0.041z" />
<glyph unicode="&#xe925;" glyph-name="heart" d="M743.068 870.957c153.039-0.756 276.867-124.741 277.37-277.767v-0.048c0-280.487-510.219-557.857-510.219-557.857s-510.219 281.823-510.219 557.857c0 153.433 124.382 277.816 277.816 277.816v0 0c0.739 0.007 1.612 0.011 2.486 0.011 95.955 0 180.382-49.359 229.276-124.072l0.642-1.045c50.517 75.824 135.664 125.107 232.321 125.107 0.186 0 0.371 0 0.557-0.001h-0.029z" />
<glyph unicode="&#xe926;" glyph-name="circle-1" d="M512-64c-282.77 0-512 229.23-512 512s229.23 512 512 512c282.77 0 512-229.23 512-512v0c0-282.77-229.23-512-512-512v0zM512 746.667c-164.949 0-298.667-133.718-298.667-298.667s133.718-298.667 298.667-298.667c164.949 0 298.667 133.718 298.667 298.667v0c0 164.949-133.718 298.667-298.667 298.667v0z" />
<glyph unicode="&#xe927;" glyph-name="circle-2" d="M1024 448c0-282.77-229.23-512-512-512s-512 229.23-512 512c0 282.77 229.23 512 512 512s512-229.23 512-512z" />
<glyph unicode="&#xe928;" glyph-name="down" d="M68.267 704h886.613c3.040 0.556 6.538 0.875 10.111 0.875 32.519 0 58.88-26.361 58.88-58.88 0-18.144-8.207-34.372-21.112-45.173l-0.092-0.075-442.88-391.68c-13.014-11.117-30.037-17.882-48.64-17.882s-35.626 6.765-48.744 17.968l0.104-0.086-442.88 390.827c-12.654 11.013-20.608 27.146-20.608 45.136 0 32.99 26.744 59.733 59.733 59.733 3.359 0 6.654-0.277 9.863-0.81l-0.348 0.048z" />
<glyph unicode="&#xe929;" glyph-name="close" d="M1017.6 42.667l-420.267 401.92 413.867 395.52c10.931 10.433 17.728 25.116 17.728 41.387s-6.797 30.954-17.706 41.365l-0.022 0.021c-10.416 9.745-24.456 15.73-39.893 15.73s-29.478-5.985-39.926-15.76l0.033 0.031-415.573-398.507-418.133 398.933c-10.326 9.366-24.098 15.1-39.208 15.1-15.77 0-30.081-6.245-40.596-16.396l0.017 0.016c-10.744-10.091-17.548-24.27-17.919-40.040l-0.001-0.067c-0.002-0.18-0.003-0.392-0.003-0.605 0-16.44 6.689-31.317 17.494-42.059l0.003-0.003 414.293-395.52-413.013-394.24c-11.6-10.362-18.867-25.363-18.867-42.062 0-14.134 5.206-27.051 13.805-36.94l-0.058 0.069 3.84-4.267c10.386-10.004 24.522-16.178 40.1-16.213h0.007c0.318-0.006 0.694-0.009 1.070-0.009 16.066 0 30.691 6.166 41.639 16.261l-0.042-0.039 417.28 398.507 417.707-399.36c10.521-9.682 24.62-15.618 40.107-15.618s29.586 5.936 40.149 15.656l-0.042-0.038c10.238 10.135 16.578 24.191 16.578 39.729 0 14.452-5.485 27.623-14.486 37.544l0.042-0.047zM77.653 901.12v0 0z" />
<glyph unicode="&#xe92a;" d="M1024 448c0-282.77-229.23-512-512-512s-512 229.23-512 512c0 282.77 229.23 512 512 512s512-229.23 512-512z" />
<glyph unicode="&#xe92b;" d="M512 960c-282.77 0-512-229.23-512-512s229.23-512 512-512c282.77 0 512 229.23 512 512v0c-0.33 282.638-229.363 511.671-511.969 512h-0.031zM512-25.358c-261.429 0-473.358 211.93-473.358 473.358s211.93 473.358 473.358 473.358c261.429 0 473.358-211.93 473.358-473.358v0c-0.329-261.296-212.062-473.029-473.326-473.358h-0.032z" />
<glyph unicode="&#xe92c;" d="M590.249 434.089h-160.749c-8.17-0.922-14.461-7.792-14.461-16.133s6.291-15.211 14.387-16.126l0.074-0.007h160.749c8.17 0.922 14.461 7.792 14.461 16.133s-6.291 15.211-14.387 16.126l-0.074 0.007zM622.322 530.693h-224.894c-0.118 0.003-0.257 0.005-0.397 0.005-8.761 0-15.901-6.942-16.218-15.626l-0.001-0.029c-0.007-0.176-0.011-0.382-0.011-0.59 0-8.657 6.859-15.711 15.439-16.025l0.029-0.001h226.053c8.482 0.588 15.14 7.613 15.14 16.193 0 8.17-6.037 14.93-13.893 16.063l-0.087 0.010zM509.875 707.285c-142.008 0-256.966-100.661-256.966-224.894 1.431-73.118 39.139-137.13 95.819-174.94l0.785-0.493v-113.992l112.64 68.395c14.401-2.581 30.979-4.057 47.901-4.057 0.005 0 0.010 0 0.015 0h-0.001c142.008 0 257.159 100.661 257.159 224.894s-115.345 224.894-257.352 224.894zM509.875 289.57c-19.277 0.077-38.003 2.255-56.016 6.316l1.725-0.327-75.544-45.597v74.578c-56.545 31.372-94.637 89.949-96.598 157.583l-0.006 0.268c0 106.457 100.661 193.208 224.894 193.208s225.86-86.943 225.86-193.401-100.082-192.821-224.314-192.821z" />
</font>
</defs>
</svg>
